<?xml version="1.0" encoding="UTF-8" standalone="no"?>
<!-- Generator: Adobe Illustrator 17.1.0, SVG Export Plug-In . SVG Version: 6.00 Build 0)  -->

<svg
   xmlns:dc="http://purl.org/dc/elements/1.1/"
   xmlns:cc="http://creativecommons.org/ns#"
   xmlns:rdf="http://www.w3.org/1999/02/22-rdf-syntax-ns#"
   xmlns:svg="http://www.w3.org/2000/svg"
   xmlns="http://www.w3.org/2000/svg"
   xmlns:sodipodi="http://sodipodi.sourceforge.net/DTD/sodipodi-0.dtd"
   xmlns:inkscape="http://www.inkscape.org/namespaces/inkscape"
   version="1.1"
   id="Layer_1"
   x="0px"
   y="0px"
   viewBox="0 0 21.9 31.4"
   enable-background="new 0 0 21.9 31.4"
   xml:space="preserve"
   inkscape:version="0.91 r13725"
   sodipodi:docname="angelList-img-white.svg"><metadata
   id="metadata11"><rdf:RDF><cc:Work
       rdf:about=""><dc:format>image/svg+xml</dc:format><dc:type
         rdf:resource="http://purl.org/dc/dcmitype/StillImage" /><dc:title></dc:title></cc:Work></rdf:RDF></metadata><defs
   id="defs9" /><sodipodi:namedview
   pagecolor="#ffffff"
   bordercolor="#666666"
   borderopacity="1"
   objecttolerance="10"
   gridtolerance="10"
   guidetolerance="10"
   inkscape:pageopacity="0"
   inkscape:pageshadow="2"
   inkscape:window-width="1920"
   inkscape:window-height="1138"
   id="namedview7"
   showgrid="false"
   inkscape:zoom="7.5159237"
   inkscape:cx="10.95"
   inkscape:cy="15.7"
   inkscape:window-x="-8"
   inkscape:window-y="-8"
   inkscape:window-maximized="1"
   inkscape:current-layer="Layer_1" />
<g
   id="g3">
	<path
   d="M18.3,13.4c1.3,0.2,2.2,0.8,2.7,1.6c0.5,0.8,0.8,2.2,0.8,4c0,3.6-1.1,6.6-3.3,8.9c-2.2,2.3-5,3.5-8.4,3.5   c-1.3,0-2.6-0.2-3.9-0.7c-1.3-0.5-2.3-1.2-3.2-2c-1-0.9-1.8-2-2.3-3C0.3,24.6,0,23.5,0,22.4c0-1.2,0.3-2.2,0.8-2.9   c0.5-0.7,1.4-1.1,2.5-1.4c-0.2-0.5-0.4-0.9-0.5-1.3c-0.1-0.3-0.2-0.6-0.2-0.8c0-0.6,0.3-1.3,1-2c0.7-0.7,1.3-1,1.9-1   c0.3,0,0.5,0,0.8,0.1c0.3,0.1,0.6,0.2,1,0.5C6.4,10.6,5.5,8.1,5,6.4C4.5,4.7,4.3,3.6,4.3,2.9C4.3,2,4.5,1.3,5,0.8   C5.4,0.3,6.1,0,6.9,0C8.2,0,9.9,3,12,9.1c0.4,1,0.6,1.8,0.8,2.4c0.2-0.4,0.4-1.1,0.7-1.9c2.1-6,3.9-9,5.3-9c0.7,0,1.3,0.2,1.8,0.7   c0.4,0.5,0.7,1.2,0.7,2c0,0.6-0.2,1.8-0.7,3.5C20,8.5,19.3,10.7,18.3,13.4z M2.9,22.2c0.2,0.2,0.5,0.6,0.8,1.1c0.9,1.3,1.8,2,2.6,2   c0.3,0,0.5-0.1,0.7-0.3c0.2-0.2,0.3-0.4,0.3-0.5c0-0.2-0.1-0.6-0.4-1.1c-0.3-0.5-0.7-1.1-1.2-1.7c-0.6-0.7-1.1-1.3-1.4-1.6   c-0.4-0.3-0.7-0.5-0.9-0.5c-0.5,0-1,0.3-1.4,0.8c-0.4,0.5-0.6,1.2-0.6,1.9c0,0.6,0.1,1.2,0.4,2c0.3,0.7,0.7,1.5,1.3,2.2   C4,27.5,5,28.4,6.3,29c1.3,0.6,2.6,0.9,4.2,0.9c2.8,0,5.1-1,7-3.1c1.9-2.1,2.8-4.7,2.8-7.9c0-1-0.1-1.7-0.2-2.3   c-0.1-0.6-0.4-1-0.7-1.2c-0.6-0.5-1.7-0.9-3.4-1.3c-1.7-0.4-3.5-0.6-5.3-0.6c-0.5,0-0.9,0.1-1.1,0.3c-0.2,0.2-0.3,0.5-0.3,0.9   c0,1,0.5,1.7,1.6,2.1c1.1,0.4,2.9,0.7,5.3,0.7h0.9c0.2,0,0.4,0.1,0.5,0.2c0.1,0.2,0.2,0.4,0.2,0.7c-0.2,0.2-0.7,0.5-1.5,0.8   c-0.8,0.3-1.3,0.6-1.7,0.9c-0.9,0.6-1.6,1.4-2.1,2.3c-0.5,0.9-0.8,1.7-0.8,2.5c0,0.5,0.1,1,0.3,1.7c0.2,0.7,0.3,1.1,0.3,1.2v0.2   l0,0.2c-0.6,0-1.1-0.4-1.5-1.1c-0.4-0.7-0.5-1.6-0.5-2.8v-0.2c-0.1,0.1-0.2,0.2-0.3,0.2c-0.1,0-0.2,0.1-0.4,0.1c-0.1,0-0.3,0-0.4,0   c-0.1,0-0.2-0.1-0.4-0.1c0,0.2,0.1,0.3,0.1,0.5c0,0.2,0,0.3,0,0.4c0,0.5-0.2,1-0.6,1.4c-0.4,0.4-0.9,0.6-1.5,0.6   c-0.9,0-1.8-0.4-2.8-1.3c-0.9-0.9-1.4-1.7-1.4-2.6c0-0.2,0-0.3,0.1-0.4C2.7,22.4,2.8,22.3,2.9,22.2z M9.4,22.7   c0.2,0,0.5-0.1,0.7-0.3c0.2-0.2,0.3-0.5,0.3-0.7c0-0.3-0.2-0.9-0.6-1.9c-0.4-1-0.9-2-1.5-2.9c-0.4-0.7-0.9-1.3-1.3-1.6   c-0.4-0.4-0.8-0.5-1.2-0.5c-0.3,0-0.6,0.2-1,0.6c-0.4,0.4-0.5,0.7-0.5,1.1c0,0.3,0.2,0.9,0.5,1.6c0.4,0.7,0.8,1.4,1.4,2.2   c0.6,0.8,1.2,1.5,1.8,2C8.6,22.5,9,22.7,9.4,22.7z M11.5,12.3L9.1,5.6C8.5,3.9,8.1,2.7,7.7,2.2C7.4,1.7,7.1,1.4,6.7,1.4   c-0.3,0-0.5,0.1-0.7,0.3C5.7,2,5.6,2.3,5.6,2.7c0,0.7,0.3,1.8,0.8,3.4c0.5,1.6,1.3,3.8,2.3,6.4c0.1-0.2,0.2-0.3,0.4-0.3   c0.2-0.1,0.4-0.1,0.6-0.1c0.1,0,0.3,0,0.5,0C10.5,12.2,10.9,12.2,11.5,12.3z M13.9,18.8c-0.6,0-1.2-0.1-1.8-0.2   c-0.6-0.1-1.1-0.2-1.6-0.4c0.2,0.5,0.4,0.9,0.6,1.4c0.2,0.5,0.3,0.9,0.4,1.4c0.3-0.4,0.7-0.8,1.1-1.2   C13.1,19.4,13.5,19.1,13.9,18.8z M16.8,13c1-2.6,1.7-4.8,2.3-6.5c0.5-1.7,0.8-2.7,0.8-3.1c0-0.4-0.1-0.7-0.3-1   c-0.2-0.2-0.4-0.3-0.7-0.3c-0.4,0-0.8,0.3-1.2,1c-0.4,0.7-0.9,1.7-1.4,3.2l-2.2,6.2L16.8,13z"
   id="path5" />
</g>
<path
   style="fill:#ffffff"
   d="M 8.0894066,31.162258 C 5.3740788,30.641096 2.8264218,28.924774 1.3265541,26.606216 0.33689277,25.076356 -0.14730853,22.848099 0.1728615,21.297014 0.49436347,19.739474 1.1591751,18.943775 2.5682788,18.429992 3.2034134,18.19841 3.3599536,18.08829 3.290819,17.921713 2.6621688,16.407013 2.5754193,15.750034 2.9148917,15.074706 c 0.268589,-0.534316 1.200722,-1.51745 1.6753229,-1.766988 0.518193,-0.272457 1.5533785,-0.236503 2.1647378,0.07519 0.2848986,0.145249 0.5381835,0.243904 0.5628554,0.219232 C 7.3424797,13.577464 6.8224991,11.875974 6.1622954,9.8210469 5.5020916,7.7661201 4.839494,5.5693163 4.689856,4.9392605 4.3877686,3.6673107 4.3325168,2.2188381 4.5628414,1.6094653 5.0289386,0.3763058 6.5861885,-0.29546781 7.5324329,0.32842913 8.721137,1.1121894 10.302516,4.3294294 12.102186,9.6253715 c 0.3542,1.0423145 0.676058,1.8955035 0.715239,1.8959745 0.03918,4.66e-4 0.420117,-0.972077 0.846522,-2.161219 1.461154,-4.0748055 2.660426,-6.5522859 3.795452,-7.8407165 0.64523,-0.73243482 1.186276,-0.95106443 1.929033,-0.77949478 0.701603,0.16206413 1.136529,0.50978218 1.501939,1.20078268 0.642691,1.2153463 0.32507,2.956153 -1.48117,8.1179456 -0.627365,1.79286 -1.140831,3.299388 -1.141035,3.347839 -2.66e-4,0.04845 0.240612,0.128806 0.535144,0.178567 0.744247,0.12574 1.714834,0.816555 2.157012,1.535251 1.073211,1.744347 1.001229,5.985758 -0.153644,9.0532 -1.203476,3.196539 -4.267913,5.909907 -7.661339,6.78364 -1.365389,0.351559 -3.7821187,0.449604 -5.0559324,0.205117 z m 4.7898304,-1.488327 c 1.343207,-0.321746 2.906761,-1.177014 3.948755,-2.159979 2.118056,-1.998067 3.097859,-4.033062 3.450433,-7.166352 0.173538,-1.542223 0.0037,-3.755607 -0.339056,-4.418403 -0.573934,-1.109865 -3.839739,-2.140205 -7.636525,-2.409274 -2.3846602,-0.168994 -2.8573361,-0.02956 -3.0305926,0.893974 -0.372173,1.983852 1.9301376,3.095594 6.4106806,3.095594 1.343057,0 1.551505,0.03105 1.786559,0.266102 0.478266,0.478266 0.337105,0.645001 -1.123501,1.327038 -2.282418,1.065788 -3.315668,2.016937 -4.182762,3.850408 -0.598381,1.265276 -0.644458,1.988132 -0.229426,3.599222 0.422104,1.63854 0.422215,1.642129 0.04734,1.528446 -0.902019,-0.273541 -1.457376,-1.316927 -1.536929,-2.887529 -0.05465,-1.078871 -0.153713,-1.36338 -0.359046,-1.031144 -0.04523,0.07318 -0.3630923,0.132969 -0.7063689,0.13287 l -0.6241392,-1.34e-4 0.038759,0.6987 C 8.9221182,27.313489 6.2054678,27.820244 4.0905021,25.870736 2.9349961,24.805628 2.5066444,23.691511 2.819824,22.56578 2.9069993,22.252427 2.9456057,22.282543 3.4963101,23.09349 4.612583,24.737275 5.7280853,25.530227 6.6121108,25.308352 7.0943039,25.187329 7.4028106,24.670691 7.2925795,24.168811 7.100745,23.295395 4.826961,20.31988 3.9055507,19.736484 3.5347582,19.501716 3.4176718,19.487594 2.9653954,19.6231 c -0.6002952,0.179803 -1.2710226,0.918275 -1.4639985,1.611815 -0.4694961,1.68733 0.2923908,3.92798 1.9411851,5.708875 2.3295925,2.516238 5.9531273,3.564572 9.436655,2.730141 z M 10.146512,22.407285 C 10.548352,21.975959 10.485469,21.367559 9.8841317,19.868717 8.8797678,17.365327 7.3344169,15.170145 6.3470663,14.84429 5.704107,14.632094 5.3442533,14.75497 4.7801959,15.379314 4.395336,15.805308 4.2974575,16.021189 4.2974575,16.44404 c 0,0.744058 0.3756,1.649554 1.2216866,2.945244 1.1510747,1.762747 2.1410318,2.853735 2.8016039,3.087524 0.8519061,0.301505 1.5032035,0.276704 1.825764,-0.06952 z m 2.072094,-2.10842 c 0.362931,-0.368471 0.884568,-0.82566 1.159194,-1.015976 0.593053,-0.410986 0.631241,-0.575875 0.133429,-0.576122 -0.37247,-1.33e-4 -2.254342,-0.320942 -2.788774,-0.475334 -0.284265,-0.08212 -0.278801,-0.04789 0.163879,1.026848 0.251872,0.611492 0.459045,1.246517 0.460384,1.411168 0.0013,0.16465 0.04959,0.299364 0.107224,0.299364 0.05763,0 0.401733,-0.301477 0.764664,-0.669948 z m 5.307083,-9.076026 C 18.496477,8.5375878 19.419665,5.7260556 19.739097,4.4819959 19.98036,3.5423645 20.00207,3.2809112 19.874252,2.854294 19.631029,2.0424876 18.886785,1.8262403 18.198739,2.3674578 c -0.54981,0.4324806 -1.480378,2.519318 -2.836369,6.3606777 -0.658706,1.8660385 -1.234692,3.4867935 -1.279966,3.6016775 -0.06691,0.169799 0.111555,0.247667 0.953868,0.416175 1.944863,0.389079 1.756412,0.504382 2.489417,-1.523149 z m -7.213467,1.01172 c 0.755124,0.0536 1.169981,0.03531 1.169981,-0.05158 0,-0.284831 -3.2360437,-9.142234 -3.5579785,-9.7385732 C 7.7374432,2.0984227 7.4729028,1.7142384 7.3363567,1.590666 6.9582125,1.2484501 6.335728,1.3072408 5.9192667,1.7245033 5.6062833,2.0380887 5.5644715,2.1784278 5.5856257,2.8443478 5.6157045,3.7912015 6.2789343,6.104874 7.4314729,9.2835741 8.708128,12.804587 8.637269,12.656484 8.9132006,12.380552 9.1092182,12.184534 9.310929,12.163485 10.312222,12.234559 Z"
   id="path3339"
   inkscape:connector-curvature="0" /></svg>